<?xml version="1.0" encoding="iso-8859-1"?>
<!-- Generator: Adobe Illustrator 19.0.0, SVG Export Plug-In . SVG Version: 6.00 Build 0)  -->
<svg version="1.1" id="Capa_1" xmlns="http://www.w3.org/2000/svg" xmlns:xlink="http://www.w3.org/1999/xlink" x="0px" y="0px"
	 viewBox="0 0 512 512" style="enable-background:new 0 0 512 512;" xml:space="preserve">
<path style="fill:#D6D6D8;" d="M332.242,81.127c16.308-19.711,27.769-46.482,27.194-73.75c-0.097-4.579-4.274-7.979-8.802-7.288
	c-23.927,3.656-50.674,18.641-67.23,38.024c-15.259,17.643-28.801,45.061-27.783,72.23c0.153,4.094,3.612,7.357,7.707,7.241
	C289.737,116.837,315.81,101.023,332.242,81.127"/>
<path style="fill:#C2C2C4;" d="M276.227,110.343c-1.579-42.121,30.2-91.319,81.782-107.18c-1.619-2.226-4.418-3.525-7.374-3.074
	c-23.927,3.656-50.674,18.641-67.23,38.024c-15.259,17.643-28.802,45.062-27.783,72.23c0.153,4.094,3.612,7.357,7.707,7.241
	c5.121-0.145,10.228-0.862,15.255-2.06C277.199,114.212,276.303,112.381,276.227,110.343z"/>
<path style="fill:#D6D6D8;" d="M459.704,372.704c-16.579-8.347-62.333-37.152-62.899-101.034
	c-0.484-52.293,34.216-82.7,48.977-93.317c3.504-2.521,4.274-7.454,1.61-10.851c-12.265-15.635-26.606-25.664-40.382-32.165
	c0.008-0.001,0.018-0.003,0.026-0.004c-1.784-0.843-4.839-2.181-7.284-3.144l0,0c-69.32-27.287-113.006,14.538-139.469,14.538
	c-20.261,0-51.526-22.893-84.652-22.268c-43.529,0.632-83.623,25.322-106.07,64.282c-34.438,59.774-23.081,141.486,3.75,205.168
	c0,0.001-0.001,0.001-0.001,0.002c0.687,1.629,1.781,4.164,2.693,6.211c0.001-0.002,0.001-0.003,0.002-0.005
	c7.773,17.456,16.672,33.408,26.047,46.968c21.527,31.115,47.208,66.167,80.951,64.879c32.477-1.288,44.755-20.998,84.003-20.998
	c39.223,0,50.287,20.998,84.627,20.373c34.957-0.663,57.093-31.753,78.473-63.016c18.817-27.47,29.198-54.282,33.358-66.353
	C464.704,378.372,463.105,374.416,459.704,372.704z"/>
<path style="fill:#C2C2C4;" d="M122.657,447.086c-9.375-13.56-18.274-29.512-26.047-46.968c-0.001,0.001-0.001,0.003-0.002,0.005
	c-0.911-2.046-1.996-4.56-2.693-6.211c0,0,0.001-0.001,0.001-0.002c-26.666-63.288-38.311-145.183-3.75-205.168
	c20.731-35.98,56.515-59.773,96.154-63.702c-3.534-0.425-7.099-0.647-10.688-0.58c-43.529,0.632-83.623,25.322-106.07,64.282
	c-34.438,59.774-23.081,141.486,3.75,205.168c0,0.001-0.001,0.002-0.001,0.002c0.687,1.629,1.781,4.164,2.693,6.211
	c0.001-0.002,0.002-0.003,0.002-0.005c7.773,17.456,16.672,33.408,26.046,46.968c21.527,31.115,47.208,66.167,80.951,64.879
	c3.32-0.132,6.42-0.464,9.368-0.94C164.063,505.284,141.727,474.65,122.657,447.086z"/>
<g>
</g>
<g>
</g>
<g>
</g>
<g>
</g>
<g>
</g>
<g>
</g>
<g>
</g>
<g>
</g>
<g>
</g>
<g>
</g>
<g>
</g>
<g>
</g>
<g>
</g>
<g>
</g>
<g>
</g>
</svg>
