<?xml version="1.0" encoding="UTF-8"?>
<svg width="24px" height="24px" viewBox="0 0 24 24" version="1.1" xmlns="http://www.w3.org/2000/svg" xmlns:xlink="http://www.w3.org/1999/xlink">
    <title>4. Icons/bell-colored</title>
    <defs>
        <linearGradient x1="-1.11022302e-14%" y1="50%" x2="100%" y2="50%" id="linearGradient-1">
            <stop stop-color="#256CF4" offset="0%"></stop>
            <stop stop-color="#41AEFF" offset="100%"></stop>
        </linearGradient>
        <linearGradient x1="-1.11022302e-14%" y1="50%" x2="100%" y2="50%" id="linearGradient-2">
            <stop stop-color="#058D3F" offset="0%"></stop>
            <stop stop-color="#66DF57" offset="100%"></stop>
        </linearGradient>
        <path d="M14.227112,20.1323136 C14.706322,20.406861 14.8722338,21.017902 14.5976864,21.497112 C13.7735086,22.9356769 11.9306694,23.4243085 10.5069874,22.6000222 C10.059674,22.3465446 9.68408101,21.967119 9.41250707,21.5144958 C9.12835891,21.0409155 9.28192398,20.4266552 9.75550424,20.1425071 C10.1952573,19.8786552 10.7563111,19.9922193 11.0617229,20.3889638 L11.1274929,20.4855042 C11.2272661,20.6517929 11.3571204,20.7829723 11.5010363,20.8645737 C11.9426315,21.1202341 12.5036238,20.9981111 12.7990322,20.5996899 L12.8623136,20.502888 C13.136861,20.023678 13.747902,19.8577662 14.227112,20.1323136 Z M19,8 C19,10.8997539 19.5229652,13.0787755 20.3778956,14.6461479 C20.6641519,15.1709511 20.9644664,15.5813809 21.2572027,15.8903804 L21.3318566,15.9673696 L21.4529102,16.0835294 L21.5322227,16.1513653 L21.5547002,16.1679497 C22.3450079,16.6948215 22.0185515,17.898517 21.1158056,17.9939696 L21,18 L3,18 C2.04979993,18 1.6539766,16.8166327 2.35282156,16.2367509 L2.4683702,16.1509923 L2.54767097,16.0832275 L2.66876129,15.9671179 C2.69215405,15.9435966 2.71708447,15.9179553 2.74345076,15.8901411 C3.03641572,15.5810875 3.33698577,15.1703966 3.62350496,14.6450466 C4.47414714,13.0853437 4.99516117,10.925291 5.00284387,8.06069186 L5.00012333,7.62570487 C4.96409404,5.33184025 6.1533395,3.18192297 8.11769604,2.06957665 C13.2257007,-0.819466874 19,2.5928048 19,8 Z M9.10274802,3.81017204 C7.78560952,4.55602156 6.9751674,6.02113837 6.99988711,7.59497437 C7.05124099,11.0123417 6.44308032,13.6522394 5.37934573,15.6026599 L5.31026218,15.7273364 L5.15,16 L18.851,16 L18.7603207,15.8493814 L18.6221044,15.6038521 C17.6506096,13.8227782 17.0582846,11.4627013 17.0040756,8.45588194 L17,8 L16.9962122,7.79704617 C16.8552523,4.03406097 12.8054178,1.715974 9.10274802,3.81017204 Z" id="path-3"></path>
    </defs>
    <g id="4.-Icons/bell" stroke="none" stroke-width="1" fill="none" fill-rule="evenodd">
        <g id="icon">
            <use fill="url(#linearGradient-1)" xlink:href="#path-3"></use>
            <use fill="url(#linearGradient-2)" xlink:href="#path-3"></use>
        </g>
    </g>
</svg>