<?xml version="1.0" encoding="UTF-8"?>
<svg width="24px" height="24px" viewBox="0 0 24 24" version="1.1" xmlns="http://www.w3.org/2000/svg" xmlns:xlink="http://www.w3.org/1999/xlink">
    <title>4. Icons/2. Social/facebook</title>
    <g id="4.-Icons/2.-Social/facebook" stroke="none" stroke-width="1" fill="none" fill-rule="evenodd">
        <path d="M14.7089692,22 L14.7089692,15.1585276 L17.0676916,15.1585276 L17.4207439,12.4920245 L14.7089692,12.4920245 L14.7089692,10.7892025 C14.7089692,10.0176687 14.9289654,9.49128834 16.0659905,9.49128834 L17.516,9.49055215 L17.516,7.10527607 C17.2650077,7.07288344 16.4046789,7 15.4029779,7 C13.3118798,7 11.8807704,8.24269939 11.8807704,10.524908 L11.8807704,12.4912883 L9.516,12.4912883 L9.516,15.1577914 L11.8807704,15.1577914 L11.8807704,22 L6,22 C3.790861,22 2,20.209139 2,18 L2,6 C2,3.790861 3.790861,2 6,2 L18,2 C20.209139,2 22,3.790861 22,6 L22,18 C22,20.209139 20.209139,22 18,22 L14.7089692,22 Z" id="icon" fill="#FFFFFF"></path>
    </g>
</svg>