<svg xmlns="http://www.w3.org/2000/svg" xmlns:xlink="http://www.w3.org/1999/xlink" width="498.132" height="477.383" viewBox="0 0 498.132 477.383">
  <defs>
    <linearGradient id="linear-gradient" x1="0.5" x2="0.5" y2="1" gradientUnits="objectBoundingBox">
      <stop offset="0" stop-color="#50bbdd"/>
      <stop offset="1" stop-color="#09f2cb"/>
    </linearGradient>
  </defs>
  <path id="github" d="M249.066.5C111.457.5,0,110.089,0,245.249,0,353.406,71.357,445.124,170.3,477.461c12.453,2.3,17.019-5.272,17.019-11.768,0-5.812-.208-21.212-.311-41.615-69.282,14.757-83.894-32.835-83.894-32.835C91.781,362.995,75.4,355.44,75.4,355.44c-22.561-15.172,1.743-14.861,1.743-14.861,25.01,1.7,38.149,25.218,38.149,25.218,22.208,37.422,58.3,26.609,72.54,20.361,2.242-15.836,8.655-26.609,15.774-32.731C148.3,347.3,90.162,326.257,90.162,232.484c0-26.712,9.651-48.547,25.633-65.67-2.8-6.185-11.208-31.071,2.179-64.778,0,0,20.859-6.559,68.493,25.093a238.8,238.8,0,0,1,124.533,0c47.323-31.652,68.182-25.093,68.182-25.093,13.387,33.707,4.981,58.593,2.491,64.778,15.878,17.123,25.529,38.958,25.529,65.67,0,94.022-58.219,114.716-113.636,120.735,8.717,7.347,16.812,22.354,16.812,45.288,0,32.752-.311,59.07-.311,67.019,0,6.413,4.359,14.072,17.123,11.623,99.647-32.13,170.942-123.91,170.942-231.9C498.132,110.089,386.612.5,249.066.5Z" transform="translate(0 -0.5)" fill="url(#linear-gradient)"/>
</svg>
