<?xml version="1.0" encoding="UTF-8"?>
<svg width="24px" height="24px" viewBox="0 0 24 24" version="1.1" xmlns="http://www.w3.org/2000/svg" xmlns:xlink="http://www.w3.org/1999/xlink">
    <title>4. Icons/2. Social/instagram</title>
    <g id="4.-Icons/2.-Social/instagram" stroke="none" stroke-width="1" fill="none" fill-rule="evenodd">
        <path d="M12,2 C9.28416667,2 8.94416667,2.01166667 7.8775,2.06 C4.24583333,2.22666667 2.2275,4.24166667 2.06083333,7.87666667 C2.01166667,8.94416667 2,9.28416667 2,12 C2,14.7158333 2.01166667,15.0566667 2.06,16.1233333 C2.22666667,19.755 4.24166667,21.7733333 7.87666667,21.94 C8.94416667,21.9883333 9.28416667,22 12,22 C14.7158333,22 15.0566667,21.9883333 16.1233333,21.94 C19.7516667,21.7733333 21.775,19.7583333 21.9391667,16.1233333 C21.9883333,15.0566667 22,14.7158333 22,12 C22,9.28416667 21.9883333,8.94416667 21.94,7.8775 C21.7766667,4.24916667 19.7591667,2.2275 16.1241667,2.06083333 C15.0566667,2.01166667 14.7158333,2 12,2 Z M12,6.865 C9.16416667,6.865 6.865,9.16416667 6.865,12 C6.865,14.8358333 9.16416667,17.1358333 12,17.1358333 C14.8358333,17.1358333 17.135,14.8366667 17.135,12 C17.135,9.16416667 14.8358333,6.865 12,6.865 Z M12,15.3333333 C10.1591667,15.3333333 8.66666667,13.8416667 8.66666667,12 C8.66666667,10.1591667 10.1591667,8.66666667 12,8.66666667 C13.8408333,8.66666667 15.3333333,10.1591667 15.3333333,12 C15.3333333,13.8416667 13.8408333,15.3333333 12,15.3333333 Z M17.3383333,5.4625 C16.675,5.4625 16.1375,6 16.1375,6.6625 C16.1375,7.325 16.675,7.8625 17.3383333,7.8625 C18.0008333,7.8625 18.5375,7.325 18.5375,6.6625 C18.5375,6 18.0008333,5.4625 17.3383333,5.4625 Z" id="icon" fill="#FFFFFF"></path>
    </g>
</svg>