<svg id="Layer_2" data-name="Layer 2" xmlns="http://www.w3.org/2000/svg" width="1080" height="270.6" viewBox="0 0 1080 270.6">
  <g id="Layer_1" data-name="Layer 1">
    <path id="Path_1384" data-name="Path 1384" d="M306.2,155.7a3.56,3.56,0,0,1-3.6,3.5H236.3c1.7,16.4,14,31.4,31.4,31.4,11.9,0,20.7-4.5,27.3-14a3.58,3.58,0,0,1,2.9-1.7,3.21,3.21,0,0,1,3.3,3.3,3.1,3.1,0,0,1-.5,1.7c-6.7,11.6-20,17.3-33,17.3-22.3,0-38.3-20-38.3-41.3s15.9-41.3,38.3-41.3,38.4,19.8,38.5,41.1Zm-7.1-3.1c-1.4-16.4-14-31.4-31.4-31.4s-29.7,15-31.4,31.4Z" fill="#fff"/>
    <path id="Path_1385" data-name="Path 1385" d="M386.8,116.2a3.4,3.4,0,0,1,3.3,3.3,3.21,3.21,0,0,1-3.3,3.3H369v69.9a3.33,3.33,0,0,1-3.3,3.3,3.4,3.4,0,0,1-3.3-3.3V122.8H345.3a3.21,3.21,0,0,1-3.3-3.3,3.33,3.33,0,0,1,3.3-3.3h17.1V90.7a3.55,3.55,0,0,1,3-3.5,3.27,3.27,0,0,1,3.7,3.3v25.7Z" fill="#fff"/>
    <path id="Path_1386" data-name="Path 1386" d="M495.3,150v42.3a3.4,3.4,0,0,1-3.3,3.3,3.21,3.21,0,0,1-3.3-3.3V150c0-14.3-8.1-28.5-24-28.5-20.4,0-29.2,17.8-28,36.1,0,.5.2,2.6.2,2.9v31.7a3.55,3.55,0,0,1-3,3.5,3.27,3.27,0,0,1-3.7-3.3V53.3a3.33,3.33,0,0,1,3.3-3.3,3.4,3.4,0,0,1,3.3,3.3v78.6c5.7-10.2,15.9-17.1,27.8-17.1C484.2,114.8,495.3,131.9,495.3,150Z" fill="#fff"/>
    <path id="Path_1387" data-name="Path 1387" d="M614.4,155.7a3.56,3.56,0,0,1-3.6,3.5H544.5c1.7,16.4,14,31.4,31.4,31.4,11.9,0,20.7-4.5,27.3-14a3.58,3.58,0,0,1,2.9-1.7,3.21,3.21,0,0,1,3.3,3.3,3.1,3.1,0,0,1-.5,1.7c-6.7,11.6-20,17.3-33,17.3-22.3,0-38.3-20-38.3-41.3s15.9-41.3,38.3-41.3c22.2,0,38.4,19.8,38.5,41.1Zm-7.2-3.1c-1.4-16.4-14-31.4-31.4-31.4s-29.7,15-31.4,31.4Z" fill="#fff"/>
    <path id="Path_1388" data-name="Path 1388" d="M695.9,119.3a3.37,3.37,0,0,1-3.1,3.6c-19.5,2.9-28.3,18.8-28.3,37.3v31.7a3.55,3.55,0,0,1-3,3.5,3.27,3.27,0,0,1-3.7-3.3V119.8a3.55,3.55,0,0,1,3-3.5,3.27,3.27,0,0,1,3.7,3.3v14.7c5.5-9.3,16.4-18.1,27.8-18.1C694,116.2,695.9,117.4,695.9,119.3Z" fill="#fff"/>
    <path id="Path_1389" data-name="Path 1389" d="M804.9,155.7a3.56,3.56,0,0,1-3.6,3.5H735c1.7,16.4,14,31.4,31.4,31.4,11.9,0,20.7-4.5,27.3-14a3.58,3.58,0,0,1,2.9-1.7,3.21,3.21,0,0,1,3.3,3.3,3.1,3.1,0,0,1-.5,1.7c-6.7,11.6-20,17.3-33,17.3-22.3,0-38.3-20-38.3-41.3s15.9-41.3,38.3-41.3,38.4,19.8,38.5,41.1Zm-7.1-3.1c-1.4-16.4-14-31.4-31.4-31.4s-29.7,15-31.4,31.4Z" fill="#fff"/>
    <path id="Path_1390" data-name="Path 1390" d="M912.1,120.1v72.6a3.4,3.4,0,0,1-3.3,3.3,3.21,3.21,0,0,1-3.3-3.3V178.9c-5.5,10.9-15.2,18.8-27.6,18.8-19.7,0-30.6-17.1-30.6-35.2V120a3.33,3.33,0,0,1,3.3-3.3,3.4,3.4,0,0,1,3.3,3.3v42.5c0,14.3,8.1,28.5,24,28.5,22.3,0,27.6-20.9,27.6-44V119.9a3.35,3.35,0,0,1,4.5-3.1,3.63,3.63,0,0,1,2.1,3.3Z" fill="#fff"/>
    <path id="Path_1391" data-name="Path 1391" d="M1080,149.7v42.5a3.4,3.4,0,0,1-3.3,3.3,3.21,3.21,0,0,1-3.3-3.3V149.7c0-14.3-8.1-28.3-24-28.3-20,0-27.6,21.4-27.6,38v32.8a3.4,3.4,0,0,1-3.3,3.3,3.21,3.21,0,0,1-3.3-3.3V149.7c0-14.3-8.1-28.3-24-28.3-20.2,0-28.5,15.9-27.8,37.1,0,.5.2,1.4,0,1.7v31.9a3.55,3.55,0,0,1-3,3.5,3.27,3.27,0,0,1-3.7-3.3V119.8a3.55,3.55,0,0,1,3-3.5,3.27,3.27,0,0,1,3.7,3.3v12.1c5.7-10.2,15.9-16.9,27.8-16.9,13.5,0,24,8.6,28.3,21.1,5.5-12.4,16.2-21.1,29.9-21.1,19.5,0,30.6,16.9,30.6,34.9Z" fill="#fff"/>
    <path id="Path_1392" data-name="Path 1392" d="M83,100.1,0,137.8l83,49.1,83.1-49.1Z" fill="#606060" opacity="0.6"/>
    <path id="Path_1393" data-name="Path 1393" d="M0,137.8l83,49.1V0Z" fill="#fff" opacity="0.45"/>
    <path id="Path_1394" data-name="Path 1394" d="M83,0V186.9l83.1-49.1Z" fill="#eaeaea" opacity="0.8"/>
    <path id="Path_1395" data-name="Path 1395" d="M0,153.6l83,117v-68Z" fill="#fff" opacity="0.45"/>
    <path id="Path_1396" data-name="Path 1396" d="M83,202.6v68l83.1-117Z" fill="#d0d0d0" opacity="0.8"/>
  </g>
</svg>
