<?xml version="1.0" encoding="UTF-8"?>
<svg width="24px" height="24px" viewBox="0 0 24 24" version="1.1" xmlns="http://www.w3.org/2000/svg" xmlns:xlink="http://www.w3.org/1999/xlink">
    <title>4. Icons/link</title>
    <g id="4.-Icons/link" stroke="none" stroke-width="1" fill="none" fill-rule="evenodd">
        <path d="M3.96,11.38 C4.24,9.91 5.62,8.9 7.12,8.9 L10.05,8.9 C10.57,8.9 11,8.47 11,7.95 C11,7.43 10.57,7 10.05,7 L7.22,7 C4.61,7 2.28,8.91 2.03,11.51 C1.74,14.49 4.08,17 7,17 L10.05,17 C10.57,17 11,16.57 11,16.05 C11,15.53 10.57,15.1 10.05,15.1 L7,15.1 C5.09,15.1 3.58,13.36 3.96,11.38 Z M9,13 L15,13 C15.55,13 16,12.55 16,12 C16,11.45 15.55,11 15,11 L9,11 C8.45,11 8,11.45 8,12 C8,12.55 8.45,13 9,13 Z M16.78,7 L13.95,7 C13.43,7 13,7.43 13,7.95 C13,8.47 13.43,8.9 13.95,8.9 L16.88,8.9 C18.38,8.9 19.76,9.91 20.04,11.38 C20.42,13.36 18.91,15.1 17,15.1 L13.95,15.1 C13.43,15.1 13,15.53 13,16.05 C13,16.57 13.43,17 13.95,17 L17,17 C19.92,17 22.26,14.49 21.98,11.51 C21.73,8.91 19.39,7 16.78,7 Z" id="icon" fill="#FFFFFF"></path>
    </g>
</svg>