<?xml version="1.0" encoding="UTF-8"?>
<svg width="24px" height="24px" viewBox="0 0 24 24" version="1.1" xmlns="http://www.w3.org/2000/svg" xmlns:xlink="http://www.w3.org/1999/xlink">
    <title>4. Icons/lock</title>
    <g id="4.-Icons/lock" stroke="none" stroke-width="1" fill="none" fill-rule="evenodd">
        <path d="M12,1 C8.6761905,1 6,3.6761905 6,7 L6,9.7207031 C4.7585397,11.130211 4,12.97425 4,15 C4,19.418 7.582,23 12,23 C16.418,23 20,19.418 20,15 C20,12.97425 19.24146,11.130211 18,9.7207031 L18,7 C18,3.6761905 15.32381,1 12,1 Z M12,3 C14.27619,3 16,4.7238095 16,7 L16,8.0800781 C14.822119,7.3974831 13.459229,7 12,7 C10.540771,7 9.1778813,7.3974831 8,8.0800781 L8,7 C8,4.7238095 9.7238095,3 12,3 Z M12.041016,12.001953 C13.122078,12.023432 14,12.91325 14,14 C14,14.735 13.594,15.372703 13,15.720703 L13,18 C13,18.552 12.552,19 12,19 C11.448,19 11,18.552 11,18 L11,15.720703 C10.274,15.295703 9.8285,14.437047 10.0625,13.498047 C10.2415,12.781047 10.843406,12.200875 11.566406,12.046875 C11.727156,12.0125 11.886578,11.998885 12.041016,12.001953 Z" id="icon" fill="#FFFFFF"></path>
    </g>
</svg>