<?xml version="1.0" encoding="UTF-8"?>
<svg width="24px" height="24px" viewBox="0 0 24 24" version="1.1" xmlns="http://www.w3.org/2000/svg" xmlns:xlink="http://www.w3.org/1999/xlink">
    <title>4. Icons/pencil-colored</title>
    <defs>
        <linearGradient x1="-1.11022302e-14%" y1="50%" x2="100%" y2="50%" id="linearGradient-1">
            <stop stop-color="#3883FF" offset="0%"></stop>
            <stop stop-color="#4DBBFF" offset="100%"></stop>
        </linearGradient>
    </defs>
    <g id="4.-Icons/pencil" stroke="none" stroke-width="1" fill="none" fill-rule="evenodd">
        <path d="M14.835938,2 C14.579812,2 14.323906,2.0974687 14.128906,2.2929688 L6.1425781,10.279297 C6.0285781,10.393297 5.9454844,10.531547 5.8964844,10.685547 L3.046875,19.699219 C2.933875,20.055219 3.0289687,20.444031 3.2929688,20.707031 C3.4829688,20.897031 3.739,21 4,21 C4.101,21 4.2027344,20.984125 4.3027344,20.953125 L13.316406,18.103516 C13.468406,18.055516 13.607703,17.972375 13.720703,17.859375 L21.707031,9.8710938 C22.098031,9.4800937 22.098031,8.8470312 21.707031,8.4570312 L15.544922,2.2929688 C15.349422,2.0974688 15.092063,2 14.835938,2 Z M7.6464844,11.783203 C7.8126319,11.883445 7.9685396,11.99219 8.09375,12.117188 C8.5849396,12.609037 8.858953,13.494719 8.953125,14.158203 C9.01448232,14.5926868 9.35188904,14.9364297 9.7851562,15.005859 C10.467641,15.115993 11.393425,15.41491 11.884766,15.90625 C12.010722,16.032207 12.124107,16.183242 12.224609,16.349609 L7.0253906,17.994141 L6.0058594,16.974609 L7.6464844,11.783203 Z" id="icon" fill="url(#linearGradient-1)"></path>
    </g>
</svg>