<svg xmlns="http://www.w3.org/2000/svg" xmlns:xlink="http://www.w3.org/1999/xlink" width="193.176" height="55" viewBox="0 0 193.176 55">
  <defs>
    <linearGradient id="linear-gradient" x1="0.426" y1="0.182" x2="0.693" y2="0.83" gradientUnits="objectBoundingBox">
      <stop offset="0" stop-color="#ed55eb"/>
      <stop offset="0.374" stop-color="#17e0d8"/>
      <stop offset="0.601" stop-color="#00ffc2"/>
      <stop offset="1" stop-color="#ffec06"/>
    </linearGradient>
  </defs>
  <g id="Page-1" transform="translate(0.5 0.5)">
    <g id="Group-30-Copy-2">
      <g id="Group-46-Copy-9">
        <path id="Combined-Shape" d="M32,0A27.226,27.226,0,0,1,53.72,10.745l.116,0h0l.377,0C59.646,11.771,64,17.3,64,23.66a11.989,11.989,0,0,1-5.759,10.471,27.263,27.263,0,0,1-52.482,0A11.989,11.989,0,0,1,0,23.66C0,17.3,4.354,11.771,9.787,10.741q.25,0,.494,0A27.221,27.221,0,0,1,32,0Z" fill="#171717" stroke="#fff" stroke-width="1" fill-rule="evenodd"/>
        <path id="Rectangle" d="M22,12.054a22.168,22.168,0,0,1,20,0A18.218,18.218,0,0,1,52,28.314V33.2A12.845,12.845,0,0,1,42,45.729a45.145,45.145,0,0,1-20,0A12.845,12.845,0,0,1,12,33.2V28.314A18.218,18.218,0,0,1,22,12.054Z" fill-rule="evenodd" fill="url(#linear-gradient)"/>
      </g>
      <path id="space" d="M87.868,39.528a13.217,13.217,0,0,1-5.346-.946A7.038,7.038,0,0,1,79.376,36.1a5.97,5.97,0,0,1-1.012-3.344q0-.528.022-.726t.022-.242h3.828v.44a3.431,3.431,0,0,0,1.628,3.1,7.767,7.767,0,0,0,4.224,1.034,7.017,7.017,0,0,0,3.718-.9,2.819,2.819,0,0,0,1.474-2.53,2.79,2.79,0,0,0-.836-2.09,5.875,5.875,0,0,0-2.068-1.276,32.125,32.125,0,0,0-3.344-.99,32.929,32.929,0,0,1-4.158-1.32,7.143,7.143,0,0,1-2.728-1.958,4.963,4.963,0,0,1-1.122-3.366A5.627,5.627,0,0,1,81.51,17.11,13.155,13.155,0,0,1,92.8,16.186a6.787,6.787,0,0,1,2.926,2.288,5.477,5.477,0,0,1,.99,3.19l-.044.836H92.884v-.4a3.187,3.187,0,0,0-1.21-2.552A6.043,6.043,0,0,0,87.78,18.54a5.57,5.57,0,0,0-3.7.946,2.855,2.855,0,0,0-1.056,2.178,2.133,2.133,0,0,0,.748,1.672,5.651,5.651,0,0,0,1.848,1.056q1.1.4,3.08.88a38.254,38.254,0,0,1,4.444,1.386,7.513,7.513,0,0,1,2.926,2.068,5.387,5.387,0,0,1,1.21,3.674,6.071,6.071,0,0,1-2.574,5.346A11.808,11.808,0,0,1,87.868,39.528Zm14.08-23.672h2.9l.484,3.124h.264a7.393,7.393,0,0,1,3.014-2.728,9.259,9.259,0,0,1,4.158-.924,8.2,8.2,0,0,1,6.776,2.948q2.376,2.948,2.376,9.152,0,6.072-2.354,9.086a7.734,7.734,0,0,1-6.446,3.014,10.442,10.442,0,0,1-4.18-.748,6.663,6.663,0,0,1-2.86-2.42h-.264V46.612h-3.872Zm9.856,20.46a6.607,6.607,0,0,0,3.564-.836,4.85,4.85,0,0,0,1.936-2.728,17.2,17.2,0,0,0,.616-5.148v-.176a17.843,17.843,0,0,0-.616-5.236,4.928,4.928,0,0,0-1.958-2.794,6.494,6.494,0,0,0-3.542-.858,5.012,5.012,0,0,0-4.532,2.244q-1.452,2.244-1.452,6.644V27.6q0,4.312,1.43,6.512A5.032,5.032,0,0,0,111.8,36.316Zm20.9,3.212a10.1,10.1,0,0,1-5.324-1.408q-2.333-1.408-2.332-5.1a6.058,6.058,0,0,1,3.96-6.094q3.96-1.65,11.44-1.65V22.72a4.056,4.056,0,0,0-1.144-3.1q-1.145-1.078-4.136-1.078a6.106,6.106,0,0,0-4.026,1.056,3.313,3.313,0,0,0-1.21,2.6v.528h-3.74a7.033,7.033,0,0,1-.044-.968A5.356,5.356,0,0,1,128.7,17a12.289,12.289,0,0,1,6.82-1.672q4.313,0,6.556,1.8a6.174,6.174,0,0,1,2.244,5.1v12.54a1.448,1.448,0,0,0,.44,1.166,1.639,1.639,0,0,0,1.1.374h1.76v2.508a7.2,7.2,0,0,1-2.992.528,3.633,3.633,0,0,1-2.508-.9,4.491,4.491,0,0,1-1.364-2.4h-.308a7.956,7.956,0,0,1-3.234,2.552A10.83,10.83,0,0,1,132.7,39.528Zm1.012-3.212a7.742,7.742,0,0,0,3.256-.7,6.094,6.094,0,0,0,2.508-2.09,5.733,5.733,0,0,0,.968-3.366V28.484a30.026,30.026,0,0,0-8.514.9q-2.838.9-2.838,3.41a3.067,3.067,0,0,0,1.166,2.706A6.036,6.036,0,0,0,133.716,36.316Zm25.96,3.212q-5.28,0-7.744-2.926t-2.464-9.174q0-6.2,2.486-9.152t7.722-2.948q4.752,0,6.952,2.288t2.2,6.82h-3.96a7.191,7.191,0,0,0-1.122-4.51q-1.122-1.386-4.07-1.386a5.394,5.394,0,0,0-4.708,2.09q-1.5,2.09-1.5,6.8V27.6q0,4.664,1.452,6.688t4.752,2.024q2.9,0,4.158-1.474a6.684,6.684,0,0,0,1.254-4.422h3.74a9.583,9.583,0,0,1-2.244,6.534Q164.34,39.528,159.676,39.528Zm23.012,0q-5.588,0-8.316-2.948t-2.728-9.152q0-6.2,2.728-9.152t8.316-2.948q5.016,0,7.5,2.662t2.486,8.558v1.936H175.648q.221,4,1.914,5.918a6.491,6.491,0,0,0,5.126,1.914,7.334,7.334,0,0,0,4.488-1.276,4.561,4.561,0,0,0,1.716-3.916h3.784a7.427,7.427,0,0,1-2.794,6.226A11.36,11.36,0,0,1,182.688,39.528Zm5.94-14.256q0-6.732-5.94-6.732a6.9,6.9,0,0,0-4.95,1.584q-1.65,1.584-2,5.148Z" fill="#fff"/>
    </g>
  </g>
</svg>
