<?xml version="1.0" encoding="UTF-8"?>
<svg width="24px" height="24px" viewBox="0 0 24 24" version="1.1" xmlns="http://www.w3.org/2000/svg" xmlns:xlink="http://www.w3.org/1999/xlink">
    <title>4. Icons/2. Social/twitter</title>
    <g id="4.-Icons/2.-Social/twitter" stroke="none" stroke-width="1" fill="none" fill-rule="evenodd">
        <path d="M22,5.89417555 C21.2641667,6.21575062 20.4733333,6.43232158 19.6433333,6.52994258 C20.4908333,6.03035275 21.1416667,5.23872026 21.4475,4.29532404 C20.655,4.75799836 19.7766667,5.09433962 18.8416667,5.27563577 C18.0941667,4.49056604 17.0266667,4 15.8466667,4 C13.1975,4 11.2508333,6.43314192 11.8491667,8.95898277 C8.44,8.79081214 5.41666667,7.18293683 3.3925,4.73913043 C2.3175,6.55455291 2.835,8.92945037 4.66166667,10.1320755 C3.99,10.1107465 3.35666667,9.92945037 2.80416667,9.62674323 C2.75916667,11.4979491 4.12166667,13.2485644 6.095,13.6382281 C5.5175,13.7924528 4.885,13.828548 4.24166667,13.707137 C4.76333333,15.3117309 6.27833333,16.4790812 8.075,16.511895 C6.35,17.8433142 4.17666667,18.438064 2,18.1853979 C3.81583333,19.3314192 5.97333333,20 8.29,20 C15.9083333,20 20.2125,13.6661198 19.9525,7.9852338 C20.7541667,7.41509434 21.45,6.70385562 22,5.89417555 Z" id="icon" fill="#FFFFFF"></path>
    </g>
</svg>