<svg xmlns="http://www.w3.org/2000/svg" xmlns:xlink="http://www.w3.org/1999/xlink" width="412.472" height="460.8" viewBox="0 0 412.472 460.8">
  <defs>
    <linearGradient id="linear-gradient" x1="0.5" y1="0.078" x2="1.12" y2="2.011" gradientUnits="objectBoundingBox">
      <stop offset="0" stop-color="#ed55eb"/>
      <stop offset="1" stop-color="#772b76"/>
    </linearGradient>
  </defs>
  <g id="user_1_" data-name="user (1)" transform="translate(-24.165)">
    <g id="Group_5576" data-name="Group 5576">
      <g id="Group_5575" data-name="Group 5575">
        <path id="Path_1386" data-name="Path 1386" d="M230.432,0C164.6,0,110.791,53.812,110.791,119.641S164.6,239.282,230.432,239.282,350.073,185.47,350.073,119.641,296.261,0,230.432,0Z" fill="url(#linear-gradient)"/>
      </g>
    </g>
    <g id="Group_5578" data-name="Group 5578">
      <g id="Group_5577" data-name="Group 5577">
        <path id="Path_1387" data-name="Path 1387" d="M435.755,334.89a111.538,111.538,0,0,0-12.016-21.943c-24.033-35.527-61.126-59.037-102.922-64.784-5.224-.522-10.971.522-15.151,3.657a127.529,127.529,0,0,1-150.466,0,19.6,19.6,0,0,0-15.151-3.657A147.634,147.634,0,0,0,37.127,312.947,128.6,128.6,0,0,0,25.111,334.89c-1.567,3.135-1.045,6.792.522,9.927a208.43,208.43,0,0,0,14.106,20.9,198.548,198.548,0,0,0,24.033,27.167c7.314,7.314,15.673,14.106,24.033,20.9a238.25,238.25,0,0,0,284.212,0,229.711,229.711,0,0,0,24.033-20.9,241.248,241.248,0,0,0,24.033-27.167,183.168,183.168,0,0,0,14.106-20.9C436.8,341.682,437.322,338.024,435.755,334.89Z" fill="url(#linear-gradient)"/>
      </g>
    </g>
  </g>
</svg>
