<?xml version="1.0" encoding="iso-8859-1"?>
<!-- Generator: Adobe Illustrator 19.0.0, SVG Export Plug-In . SVG Version: 6.00 Build 0)  -->
<svg version="1.1" id="Capa_1" xmlns="http://www.w3.org/2000/svg" xmlns:xlink="http://www.w3.org/1999/xlink" x="0px" y="0px"
	 viewBox="0 0 512 512" style="enable-background:new 0 0 512 512;" xml:space="preserve">
<path style="fill:#F44336;" d="M201.302,49.754l-192,24.939C3.949,75.384-0.044,79.963,0,85.36v149.333
	c0,5.891,4.776,10.667,10.667,10.667h192c5.891,0,10.667-4.776,10.667-10.667V60.314c-0.004-3.064-1.325-5.978-3.627-8
	C207.388,50.32,204.339,49.391,201.302,49.754z"/>
<path style="fill:#4CAF50;" d="M508.374,13.36c-2.286-2.06-5.35-3.032-8.405-2.667l-256,33.387
	c-5.352,0.691-9.346,5.27-9.301,10.667v179.947c0,5.891,4.776,10.667,10.667,10.667h256c5.891,0,10.667-4.776,10.667-10.667V21.36
	C511.997,18.296,510.675,15.382,508.374,13.36z"/>
<path style="fill:#2196F3;" d="M202.667,266.693h-192C4.776,266.693,0,271.469,0,277.36v149.333
	c-0.044,5.397,3.949,9.976,9.301,10.667l192,25.045c0.455,0.031,0.911,0.031,1.365,0c5.891,0,10.667-4.776,10.667-10.667V277.36
	C213.334,271.469,208.558,266.693,202.667,266.693z"/>
<path style="fill:#FFC107;" d="M501.334,266.693h-256c-5.891,0-10.667,4.776-10.667,10.667v179.947
	c-0.044,5.397,3.949,9.976,9.301,10.667l256,33.387c0.455,0.031,0.911,0.031,1.365,0c5.891,0,10.667-4.776,10.667-10.667v0V277.36
	C512,271.469,507.225,266.693,501.334,266.693z"/>
<g>
</g>
<g>
</g>
<g>
</g>
<g>
</g>
<g>
</g>
<g>
</g>
<g>
</g>
<g>
</g>
<g>
</g>
<g>
</g>
<g>
</g>
<g>
</g>
<g>
</g>
<g>
</g>
<g>
</g>
</svg>
